<svg width="48" height="48" viewBox="0 0 48 48" fill="none" xmlns="http://www.w3.org/2000/svg">
<g clip-path="url(#clip0_196_1103)">
<path d="M16.7212 1.57887C11.9253 3.24262 7.78927 6.40049 4.9207 10.5886C2.05212 14.7768 0.602197 19.7744 0.783888 24.8475C0.965579 29.9206 2.76931 34.8017 5.93014 38.7739C9.09097 42.7461 13.4423 45.6 18.345 46.9164C22.3197 47.942 26.484 47.987 30.48 47.0476C34.0999 46.2345 37.4467 44.4952 40.1925 42.0001C43.0503 39.3239 45.1246 35.9194 46.1925 32.1526C47.3532 28.0564 47.5597 23.7486 46.7962 19.5601H24.4762V28.8189H37.4025C37.1441 30.2956 36.5905 31.705 35.7748 32.9627C34.9591 34.2205 33.8979 35.3008 32.655 36.1389C31.0765 37.183 29.2972 37.8855 27.4312 38.2014C25.5598 38.5494 23.6402 38.5494 21.7687 38.2014C19.8719 37.8092 18.0776 37.0263 16.5 35.9026C13.9655 34.1086 12.0625 31.5598 11.0625 28.6201C10.0455 25.6253 10.0455 22.3786 11.0625 19.3839C11.7743 17.2847 12.9511 15.3734 14.505 13.7926C16.2832 11.9504 18.5345 10.6336 21.0118 9.98665C23.4892 9.3397 26.0968 9.3876 28.5487 10.1251C30.4641 10.7131 32.2157 11.7404 33.6637 13.1251C35.1212 11.6751 36.5762 10.2214 38.0287 8.76387C38.7787 7.98012 39.5962 7.23386 40.335 6.43137C38.1246 4.3744 35.53 2.77383 32.7 1.72137C27.5464 -0.149923 21.9074 -0.200212 16.7212 1.57887Z" fill="white"/>
<path d="M16.7213 1.57873C21.907 -0.201552 27.546 -0.152587 32.7 1.71748C35.5306 2.7771 38.124 4.38538 40.3313 6.44998C39.5813 7.25248 38.79 8.00248 38.025 8.78248C36.57 10.235 35.1163 11.6825 33.6638 13.125C32.2157 11.7402 30.4642 10.713 28.5488 10.125C26.0977 9.38489 23.4901 9.33421 21.0121 9.97852C18.5341 10.6228 16.2815 11.9372 14.5013 13.7775C12.9474 15.3582 11.7706 17.2695 11.0588 19.3687L3.28503 13.35C6.06757 7.83209 10.8853 3.61132 16.7213 1.57873Z" fill="#E33629"/>
<path d="M1.22256 19.3126C1.64039 17.2418 2.33407 15.2364 3.28506 13.3501L11.0588 19.3838C10.0419 22.3786 10.0419 25.6253 11.0588 28.6201C8.46881 30.6201 5.87756 32.6301 3.28506 34.6501C0.904373 29.9113 0.178305 24.512 1.22256 19.3126Z" fill="#F8BD00"/>
<path d="M24.4763 19.5562H46.7963C47.5598 23.7447 47.3532 28.0524 46.1925 32.1487C45.1247 35.9154 43.0503 39.32 40.1925 41.9962C37.6838 40.0387 35.1638 38.0962 32.655 36.1387C33.8988 35.2997 34.9604 34.2183 35.7762 32.9591C36.592 31.7 37.1451 30.2892 37.4025 28.8112H24.4763C24.4725 25.7287 24.4763 22.6424 24.4763 19.5562Z" fill="#587DBD"/>
<path d="M3.28125 34.6501C5.87375 32.6501 8.465 30.6401 11.055 28.6201C12.057 31.5609 13.9628 34.1097 16.5 35.9026C18.0825 37.0211 19.8807 37.7976 21.78 38.1826C23.6515 38.5306 25.571 38.5306 27.4425 38.1826C29.3085 37.8668 31.0878 37.1642 32.6663 36.1201C35.175 38.0776 37.695 40.0201 40.2038 41.9776C37.4583 44.4741 34.1116 46.2147 30.4912 47.0289C26.4953 47.9683 22.331 47.9232 18.3563 46.8976C15.2126 46.0583 12.2763 44.5786 9.73125 42.5514C7.03748 40.4127 4.83733 37.7175 3.28125 34.6501Z" fill="#319F43"/>
</g>
<defs>
<clipPath id="clip0_196_1103">
<rect width="48" height="48" fill="white"/>
</clipPath>
</defs>
</svg>
